<mxfile host="app.diagrams.net" modified="2021-07-12T18:53:04.714Z" agent="5.0 (Macintosh; Intel Mac OS X 10_15_7) AppleWebKit/605.1.15 (KHTML, like Gecko) Version/14.1.1 Safari/605.1.15" etag="0uM-inVEJVIaiP3RQBGJ" version="14.8.6" type="github" pages="3">
  <diagram id="lDluSItfMPPKCwjV6RY-" name="Functional-chart">
    <mxGraphModel dx="1426" dy="825" grid="1" gridSize="10" guides="1" tooltips="1" connect="1" arrows="1" fold="1" page="1" pageScale="1" pageWidth="850" pageHeight="1100" math="0" shadow="0">
      <root>
        <mxCell id="SS_ERqg0PsHbeVuVs3__-0" />
        <mxCell id="SS_ERqg0PsHbeVuVs3__-1" parent="SS_ERqg0PsHbeVuVs3__-0" />
        <mxCell id="SS_ERqg0PsHbeVuVs3__-2" style="edgeStyle=orthogonalEdgeStyle;orthogonalLoop=1;jettySize=auto;html=1;sketch=1;curved=1;" parent="SS_ERqg0PsHbeVuVs3__-1" source="SS_ERqg0PsHbeVuVs3__-4" target="SS_ERqg0PsHbeVuVs3__-8" edge="1">
          <mxGeometry relative="1" as="geometry" />
        </mxCell>
        <mxCell id="SS_ERqg0PsHbeVuVs3__-3" style="edgeStyle=orthogonalEdgeStyle;orthogonalLoop=1;jettySize=auto;html=1;sketch=1;curved=1;" parent="SS_ERqg0PsHbeVuVs3__-1" source="SS_ERqg0PsHbeVuVs3__-4" target="SS_ERqg0PsHbeVuVs3__-7" edge="1">
          <mxGeometry relative="1" as="geometry" />
        </mxCell>
        <mxCell id="SS_ERqg0PsHbeVuVs3__-4" value="Landing Page" style="whiteSpace=wrap;html=1;sketch=1;rounded=1;" parent="SS_ERqg0PsHbeVuVs3__-1" vertex="1">
          <mxGeometry x="365" y="40" width="120" height="60" as="geometry" />
        </mxCell>
        <mxCell id="SS_ERqg0PsHbeVuVs3__-5" style="edgeStyle=orthogonalEdgeStyle;orthogonalLoop=1;jettySize=auto;html=1;entryX=0.5;entryY=0;entryDx=0;entryDy=0;sketch=1;curved=1;" parent="SS_ERqg0PsHbeVuVs3__-1" source="SS_ERqg0PsHbeVuVs3__-7" target="SS_ERqg0PsHbeVuVs3__-13" edge="1">
          <mxGeometry relative="1" as="geometry" />
        </mxCell>
        <mxCell id="SS_ERqg0PsHbeVuVs3__-6" style="edgeStyle=orthogonalEdgeStyle;orthogonalLoop=1;jettySize=auto;html=1;entryX=0.5;entryY=0;entryDx=0;entryDy=0;sketch=1;curved=1;" parent="SS_ERqg0PsHbeVuVs3__-1" source="SS_ERqg0PsHbeVuVs3__-7" target="SS_ERqg0PsHbeVuVs3__-11" edge="1">
          <mxGeometry relative="1" as="geometry" />
        </mxCell>
        <mxCell id="SS_ERqg0PsHbeVuVs3__-7" value="Reegister" style="shape=parallelogram;perimeter=parallelogramPerimeter;whiteSpace=wrap;html=1;fixedSize=1;sketch=1;rounded=1;" parent="SS_ERqg0PsHbeVuVs3__-1" vertex="1">
          <mxGeometry x="160" y="290" width="120" height="60" as="geometry" />
        </mxCell>
        <mxCell id="ENTyLrrVTItseD5gT8ZV-10" style="edgeStyle=orthogonalEdgeStyle;rounded=0;orthogonalLoop=1;jettySize=auto;html=1;entryX=0.5;entryY=0;entryDx=0;entryDy=0;" parent="SS_ERqg0PsHbeVuVs3__-1" source="SS_ERqg0PsHbeVuVs3__-8" target="ENTyLrrVTItseD5gT8ZV-8" edge="1">
          <mxGeometry relative="1" as="geometry" />
        </mxCell>
        <mxCell id="ENTyLrrVTItseD5gT8ZV-11" style="edgeStyle=orthogonalEdgeStyle;rounded=0;orthogonalLoop=1;jettySize=auto;html=1;entryX=0.5;entryY=0;entryDx=0;entryDy=0;" parent="SS_ERqg0PsHbeVuVs3__-1" source="SS_ERqg0PsHbeVuVs3__-8" target="ENTyLrrVTItseD5gT8ZV-9" edge="1">
          <mxGeometry relative="1" as="geometry" />
        </mxCell>
        <mxCell id="SS_ERqg0PsHbeVuVs3__-8" value="Login" style="shape=parallelogram;perimeter=parallelogramPerimeter;whiteSpace=wrap;html=1;fixedSize=1;sketch=1;rounded=1;" parent="SS_ERqg0PsHbeVuVs3__-1" vertex="1">
          <mxGeometry x="620" y="130" width="120" height="60" as="geometry" />
        </mxCell>
        <mxCell id="SS_ERqg0PsHbeVuVs3__-10" style="edgeStyle=orthogonalEdgeStyle;orthogonalLoop=1;jettySize=auto;html=1;entryX=0.5;entryY=0;entryDx=0;entryDy=0;sketch=1;curved=1;" parent="SS_ERqg0PsHbeVuVs3__-1" source="SS_ERqg0PsHbeVuVs3__-11" target="SS_ERqg0PsHbeVuVs3__-16" edge="1">
          <mxGeometry relative="1" as="geometry" />
        </mxCell>
        <mxCell id="SS_ERqg0PsHbeVuVs3__-11" value="Writer" style="whiteSpace=wrap;html=1;sketch=1;rounded=1;" parent="SS_ERqg0PsHbeVuVs3__-1" vertex="1">
          <mxGeometry x="40" y="450" width="120" height="60" as="geometry" />
        </mxCell>
        <mxCell id="ENTyLrrVTItseD5gT8ZV-27" style="edgeStyle=orthogonalEdgeStyle;rounded=0;orthogonalLoop=1;jettySize=auto;html=1;entryX=0.5;entryY=0;entryDx=0;entryDy=0;" parent="SS_ERqg0PsHbeVuVs3__-1" source="SS_ERqg0PsHbeVuVs3__-13" target="ENTyLrrVTItseD5gT8ZV-23" edge="1">
          <mxGeometry relative="1" as="geometry" />
        </mxCell>
        <mxCell id="SS_ERqg0PsHbeVuVs3__-13" value="Reader" style="whiteSpace=wrap;html=1;sketch=1;rounded=1;" parent="SS_ERqg0PsHbeVuVs3__-1" vertex="1">
          <mxGeometry x="280" y="450" width="120" height="60" as="geometry" />
        </mxCell>
        <mxCell id="SS_ERqg0PsHbeVuVs3__-14" value="Subscribe" style="ellipse;whiteSpace=wrap;html=1;sketch=1;rounded=1;" parent="SS_ERqg0PsHbeVuVs3__-1" vertex="1">
          <mxGeometry x="645" y="370" width="70" height="30" as="geometry" />
        </mxCell>
        <mxCell id="SS_ERqg0PsHbeVuVs3__-16" value="Profile" style="swimlane;fontStyle=0;childLayout=stackLayout;horizontal=1;startSize=26;horizontalStack=0;resizeParent=1;resizeParentMax=0;resizeLast=0;collapsible=1;marginBottom=0;sketch=1;rounded=1;" parent="SS_ERqg0PsHbeVuVs3__-1" vertex="1">
          <mxGeometry x="30" y="640" width="140" height="104" as="geometry" />
        </mxCell>
        <mxCell id="SS_ERqg0PsHbeVuVs3__-17" value="Personal information" style="text;strokeColor=none;fillColor=none;align=left;verticalAlign=top;spacingLeft=4;spacingRight=4;overflow=hidden;rotatable=0;points=[[0,0.5],[1,0.5]];portConstraint=eastwest;sketch=1;rounded=1;" parent="SS_ERqg0PsHbeVuVs3__-16" vertex="1">
          <mxGeometry y="26" width="140" height="26" as="geometry" />
        </mxCell>
        <mxCell id="SS_ERqg0PsHbeVuVs3__-18" value="list of blogs" style="text;strokeColor=none;fillColor=none;align=left;verticalAlign=top;spacingLeft=4;spacingRight=4;overflow=hidden;rotatable=0;points=[[0,0.5],[1,0.5]];portConstraint=eastwest;sketch=1;rounded=1;" parent="SS_ERqg0PsHbeVuVs3__-16" vertex="1">
          <mxGeometry y="52" width="140" height="26" as="geometry" />
        </mxCell>
        <mxCell id="SS_ERqg0PsHbeVuVs3__-19" value="reviews / followers" style="text;strokeColor=none;fillColor=none;align=left;verticalAlign=top;spacingLeft=4;spacingRight=4;overflow=hidden;rotatable=0;points=[[0,0.5],[1,0.5]];portConstraint=eastwest;sketch=1;rounded=1;" parent="SS_ERqg0PsHbeVuVs3__-16" vertex="1">
          <mxGeometry y="78" width="140" height="26" as="geometry" />
        </mxCell>
        <mxCell id="ENTyLrrVTItseD5gT8ZV-4" value="Create POST" style="swimlane;fontStyle=0;childLayout=stackLayout;horizontal=1;startSize=26;horizontalStack=0;resizeParent=1;resizeParentMax=0;resizeLast=0;collapsible=1;marginBottom=0;sketch=1;rounded=1;" parent="SS_ERqg0PsHbeVuVs3__-1" vertex="1">
          <mxGeometry x="440" y="370" width="140" height="102" as="geometry" />
        </mxCell>
        <mxCell id="ENTyLrrVTItseD5gT8ZV-5" value="Cover Image" style="text;strokeColor=none;fillColor=none;align=left;verticalAlign=top;spacingLeft=4;spacingRight=4;overflow=hidden;rotatable=0;points=[[0,0.5],[1,0.5]];portConstraint=eastwest;sketch=1;rounded=1;" parent="ENTyLrrVTItseD5gT8ZV-4" vertex="1">
          <mxGeometry y="26" width="140" height="24" as="geometry" />
        </mxCell>
        <mxCell id="ENTyLrrVTItseD5gT8ZV-6" value="POST Title" style="text;strokeColor=none;fillColor=none;align=left;verticalAlign=top;spacingLeft=4;spacingRight=4;overflow=hidden;rotatable=0;points=[[0,0.5],[1,0.5]];portConstraint=eastwest;sketch=1;rounded=1;" parent="ENTyLrrVTItseD5gT8ZV-4" vertex="1">
          <mxGeometry y="50" width="140" height="26" as="geometry" />
        </mxCell>
        <mxCell id="ENTyLrrVTItseD5gT8ZV-7" value="Writer" style="text;strokeColor=none;fillColor=none;align=left;verticalAlign=top;spacingLeft=4;spacingRight=4;overflow=hidden;rotatable=0;points=[[0,0.5],[1,0.5]];portConstraint=eastwest;sketch=1;rounded=1;" parent="ENTyLrrVTItseD5gT8ZV-4" vertex="1">
          <mxGeometry y="76" width="140" height="26" as="geometry" />
        </mxCell>
        <mxCell id="ENTyLrrVTItseD5gT8ZV-18" style="edgeStyle=orthogonalEdgeStyle;rounded=0;orthogonalLoop=1;jettySize=auto;html=1;" parent="SS_ERqg0PsHbeVuVs3__-1" source="ENTyLrrVTItseD5gT8ZV-8" target="ENTyLrrVTItseD5gT8ZV-4" edge="1">
          <mxGeometry relative="1" as="geometry" />
        </mxCell>
        <mxCell id="ENTyLrrVTItseD5gT8ZV-8" value="Writer" style="whiteSpace=wrap;html=1;sketch=1;rounded=1;" parent="SS_ERqg0PsHbeVuVs3__-1" vertex="1">
          <mxGeometry x="500" y="240" width="120" height="60" as="geometry" />
        </mxCell>
        <mxCell id="ENTyLrrVTItseD5gT8ZV-16" style="edgeStyle=orthogonalEdgeStyle;rounded=0;orthogonalLoop=1;jettySize=auto;html=1;entryX=0.5;entryY=0;entryDx=0;entryDy=0;" parent="SS_ERqg0PsHbeVuVs3__-1" source="ENTyLrrVTItseD5gT8ZV-9" target="SS_ERqg0PsHbeVuVs3__-14" edge="1">
          <mxGeometry relative="1" as="geometry" />
        </mxCell>
        <mxCell id="ENTyLrrVTItseD5gT8ZV-17" style="edgeStyle=orthogonalEdgeStyle;rounded=0;orthogonalLoop=1;jettySize=auto;html=1;entryX=0.5;entryY=0;entryDx=0;entryDy=0;" parent="SS_ERqg0PsHbeVuVs3__-1" source="ENTyLrrVTItseD5gT8ZV-9" target="ENTyLrrVTItseD5gT8ZV-12" edge="1">
          <mxGeometry relative="1" as="geometry" />
        </mxCell>
        <mxCell id="ENTyLrrVTItseD5gT8ZV-9" value="Reader" style="whiteSpace=wrap;html=1;sketch=1;rounded=1;" parent="SS_ERqg0PsHbeVuVs3__-1" vertex="1">
          <mxGeometry x="720" y="240" width="120" height="60" as="geometry" />
        </mxCell>
        <mxCell id="ENTyLrrVTItseD5gT8ZV-12" value="View POST" style="ellipse;whiteSpace=wrap;html=1;sketch=1;rounded=1;" parent="SS_ERqg0PsHbeVuVs3__-1" vertex="1">
          <mxGeometry x="770" y="370" width="70" height="30" as="geometry" />
        </mxCell>
        <mxCell id="ENTyLrrVTItseD5gT8ZV-23" value="Interests" style="swimlane;fontStyle=0;childLayout=stackLayout;horizontal=1;startSize=26;horizontalStack=0;resizeParent=1;resizeParentMax=0;resizeLast=0;collapsible=1;marginBottom=0;sketch=1;rounded=1;" parent="SS_ERqg0PsHbeVuVs3__-1" vertex="1">
          <mxGeometry x="270" y="640" width="140" height="104" as="geometry" />
        </mxCell>
        <mxCell id="ENTyLrrVTItseD5gT8ZV-24" value="Science" style="text;strokeColor=none;fillColor=none;align=left;verticalAlign=top;spacingLeft=4;spacingRight=4;overflow=hidden;rotatable=0;points=[[0,0.5],[1,0.5]];portConstraint=eastwest;sketch=1;rounded=1;" parent="ENTyLrrVTItseD5gT8ZV-23" vertex="1">
          <mxGeometry y="26" width="140" height="26" as="geometry" />
        </mxCell>
        <mxCell id="ENTyLrrVTItseD5gT8ZV-25" value="Technology" style="text;strokeColor=none;fillColor=none;align=left;verticalAlign=top;spacingLeft=4;spacingRight=4;overflow=hidden;rotatable=0;points=[[0,0.5],[1,0.5]];portConstraint=eastwest;sketch=1;rounded=1;" parent="ENTyLrrVTItseD5gT8ZV-23" vertex="1">
          <mxGeometry y="52" width="140" height="26" as="geometry" />
        </mxCell>
        <mxCell id="ENTyLrrVTItseD5gT8ZV-26" value="NEWS" style="text;strokeColor=none;fillColor=none;align=left;verticalAlign=top;spacingLeft=4;spacingRight=4;overflow=hidden;rotatable=0;points=[[0,0.5],[1,0.5]];portConstraint=eastwest;sketch=1;rounded=1;" parent="ENTyLrrVTItseD5gT8ZV-23" vertex="1">
          <mxGeometry y="78" width="140" height="26" as="geometry" />
        </mxCell>
      </root>
    </mxGraphModel>
  </diagram>
  <diagram id="bbkvOWE71wOtryD2Ek5s" name="Landing page">
    <mxGraphModel dx="1426" dy="825" grid="1" gridSize="10" guides="1" tooltips="1" connect="1" arrows="1" fold="1" page="1" pageScale="1" pageWidth="827" pageHeight="1169" math="0" shadow="0">
      <root>
        <mxCell id="kDcE2TMpnsvRKiHyRdf4-0" />
        <mxCell id="kDcE2TMpnsvRKiHyRdf4-1" parent="kDcE2TMpnsvRKiHyRdf4-0" />
        <mxCell id="4w6CJtv024DHggSnc1HM-16" value="" style="whiteSpace=wrap;html=1;sketch=1;" vertex="1" parent="kDcE2TMpnsvRKiHyRdf4-1">
          <mxGeometry x="40" y="320" width="750" height="1370" as="geometry" />
        </mxCell>
        <mxCell id="4w6CJtv024DHggSnc1HM-1" value="" style="whiteSpace=wrap;html=1;sketch=1;" vertex="1" parent="kDcE2TMpnsvRKiHyRdf4-1">
          <mxGeometry x="40" y="320" width="750" height="40" as="geometry" />
        </mxCell>
        <mxCell id="4w6CJtv024DHggSnc1HM-3" value="Link 1" style="whiteSpace=wrap;html=1;sketch=1;" vertex="1" parent="kDcE2TMpnsvRKiHyRdf4-1">
          <mxGeometry x="520" y="330" width="60" height="20" as="geometry" />
        </mxCell>
        <mxCell id="4w6CJtv024DHggSnc1HM-6" value="Link 2" style="whiteSpace=wrap;html=1;sketch=1;" vertex="1" parent="kDcE2TMpnsvRKiHyRdf4-1">
          <mxGeometry x="610" y="330" width="60" height="20" as="geometry" />
        </mxCell>
        <mxCell id="4w6CJtv024DHggSnc1HM-7" value="Link 3" style="whiteSpace=wrap;html=1;sketch=1;" vertex="1" parent="kDcE2TMpnsvRKiHyRdf4-1">
          <mxGeometry x="700" y="330" width="60" height="20" as="geometry" />
        </mxCell>
        <mxCell id="4w6CJtv024DHggSnc1HM-9" value="Brand" style="whiteSpace=wrap;html=1;sketch=1;" vertex="1" parent="kDcE2TMpnsvRKiHyRdf4-1">
          <mxGeometry x="70" y="330" width="60" height="20" as="geometry" />
        </mxCell>
        <mxCell id="4w6CJtv024DHggSnc1HM-14" value="Hero section" style="whiteSpace=wrap;html=1;sketch=1;" vertex="1" parent="kDcE2TMpnsvRKiHyRdf4-1">
          <mxGeometry x="80" y="400" width="670" height="170" as="geometry" />
        </mxCell>
        <mxCell id="4w6CJtv024DHggSnc1HM-13" value="LOG IN" style="whiteSpace=wrap;html=1;sketch=1;" vertex="1" parent="kDcE2TMpnsvRKiHyRdf4-1">
          <mxGeometry x="150" y="800" width="120" height="60" as="geometry" />
        </mxCell>
        <mxCell id="4w6CJtv024DHggSnc1HM-12" value="Register" style="whiteSpace=wrap;html=1;sketch=1;" vertex="1" parent="kDcE2TMpnsvRKiHyRdf4-1">
          <mxGeometry x="570" y="890" width="120" height="60" as="geometry" />
        </mxCell>
        <mxCell id="4w6CJtv024DHggSnc1HM-21" value="HERO&lt;br&gt;Image" style="rounded=0;whiteSpace=wrap;html=1;sketch=1;" vertex="1" parent="kDcE2TMpnsvRKiHyRdf4-1">
          <mxGeometry x="110" y="430" width="230" height="110" as="geometry" />
        </mxCell>
        <mxCell id="fzcsqnZMDEysWcwaZNAt-0" value="" style="rounded=0;whiteSpace=wrap;html=1;sketch=1;" vertex="1" parent="kDcE2TMpnsvRKiHyRdf4-1">
          <mxGeometry x="580" y="650" width="120" height="20" as="geometry" />
        </mxCell>
        <mxCell id="fzcsqnZMDEysWcwaZNAt-1" value="Email Id" style="text;html=1;strokeColor=none;fillColor=none;align=center;verticalAlign=middle;whiteSpace=wrap;rounded=0;sketch=1;" vertex="1" parent="kDcE2TMpnsvRKiHyRdf4-1">
          <mxGeometry x="100" y="710" width="50" height="20" as="geometry" />
        </mxCell>
        <mxCell id="fzcsqnZMDEysWcwaZNAt-3" value="" style="rounded=0;whiteSpace=wrap;html=1;sketch=1;" vertex="1" parent="kDcE2TMpnsvRKiHyRdf4-1">
          <mxGeometry x="200" y="750" width="120" height="20" as="geometry" />
        </mxCell>
        <mxCell id="fzcsqnZMDEysWcwaZNAt-4" value="Password" style="text;html=1;strokeColor=none;fillColor=none;align=center;verticalAlign=middle;whiteSpace=wrap;rounded=0;sketch=1;" vertex="1" parent="kDcE2TMpnsvRKiHyRdf4-1">
          <mxGeometry x="105" y="750" width="40" height="20" as="geometry" />
        </mxCell>
        <mxCell id="fzcsqnZMDEysWcwaZNAt-8" value="Email" style="text;html=1;strokeColor=none;fillColor=none;align=center;verticalAlign=middle;whiteSpace=wrap;rounded=0;sketch=1;" vertex="1" parent="kDcE2TMpnsvRKiHyRdf4-1">
          <mxGeometry x="520" y="650" width="40" height="20" as="geometry" />
        </mxCell>
        <mxCell id="fzcsqnZMDEysWcwaZNAt-10" value="" style="rounded=0;whiteSpace=wrap;html=1;sketch=1;" vertex="1" parent="kDcE2TMpnsvRKiHyRdf4-1">
          <mxGeometry x="200" y="710" width="120" height="20" as="geometry" />
        </mxCell>
        <mxCell id="fzcsqnZMDEysWcwaZNAt-11" value="OTP" style="text;html=1;strokeColor=none;fillColor=none;align=center;verticalAlign=middle;whiteSpace=wrap;rounded=0;sketch=1;" vertex="1" parent="kDcE2TMpnsvRKiHyRdf4-1">
          <mxGeometry x="520" y="690" width="40" height="20" as="geometry" />
        </mxCell>
        <mxCell id="fzcsqnZMDEysWcwaZNAt-12" value="" style="rounded=0;whiteSpace=wrap;html=1;sketch=1;" vertex="1" parent="kDcE2TMpnsvRKiHyRdf4-1">
          <mxGeometry x="580" y="690" width="120" height="20" as="geometry" />
        </mxCell>
        <mxCell id="fzcsqnZMDEysWcwaZNAt-13" value="Send OTP" style="rounded=0;whiteSpace=wrap;html=1;sketch=1;" vertex="1" parent="kDcE2TMpnsvRKiHyRdf4-1">
          <mxGeometry x="710" y="645" width="70" height="30" as="geometry" />
        </mxCell>
        <mxCell id="fzcsqnZMDEysWcwaZNAt-14" value="First Name" style="text;html=1;strokeColor=none;fillColor=none;align=center;verticalAlign=middle;whiteSpace=wrap;rounded=0;sketch=1;" vertex="1" parent="kDcE2TMpnsvRKiHyRdf4-1">
          <mxGeometry x="480" y="730" width="70" height="20" as="geometry" />
        </mxCell>
        <mxCell id="fzcsqnZMDEysWcwaZNAt-15" value="Last Name" style="text;html=1;strokeColor=none;fillColor=none;align=center;verticalAlign=middle;whiteSpace=wrap;rounded=0;sketch=1;" vertex="1" parent="kDcE2TMpnsvRKiHyRdf4-1">
          <mxGeometry x="480" y="760" width="70" height="20" as="geometry" />
        </mxCell>
        <mxCell id="fzcsqnZMDEysWcwaZNAt-16" value="" style="rounded=0;whiteSpace=wrap;html=1;sketch=1;" vertex="1" parent="kDcE2TMpnsvRKiHyRdf4-1">
          <mxGeometry x="580" y="730" width="120" height="20" as="geometry" />
        </mxCell>
        <mxCell id="fzcsqnZMDEysWcwaZNAt-17" value="" style="rounded=0;whiteSpace=wrap;html=1;sketch=1;" vertex="1" parent="kDcE2TMpnsvRKiHyRdf4-1">
          <mxGeometry x="580" y="760" width="120" height="20" as="geometry" />
        </mxCell>
        <mxCell id="fzcsqnZMDEysWcwaZNAt-18" value="Password" style="text;html=1;strokeColor=none;fillColor=none;align=center;verticalAlign=middle;whiteSpace=wrap;rounded=0;sketch=1;" vertex="1" parent="kDcE2TMpnsvRKiHyRdf4-1">
          <mxGeometry x="480" y="800" width="70" height="20" as="geometry" />
        </mxCell>
        <mxCell id="fzcsqnZMDEysWcwaZNAt-19" value="Confirm Password" style="text;html=1;strokeColor=none;fillColor=none;align=center;verticalAlign=middle;whiteSpace=wrap;rounded=0;sketch=1;" vertex="1" parent="kDcE2TMpnsvRKiHyRdf4-1">
          <mxGeometry x="480" y="830" width="70" height="20" as="geometry" />
        </mxCell>
        <mxCell id="fzcsqnZMDEysWcwaZNAt-20" value="" style="rounded=0;whiteSpace=wrap;html=1;sketch=1;" vertex="1" parent="kDcE2TMpnsvRKiHyRdf4-1">
          <mxGeometry x="580" y="800" width="120" height="20" as="geometry" />
        </mxCell>
        <mxCell id="fzcsqnZMDEysWcwaZNAt-21" value="" style="rounded=0;whiteSpace=wrap;html=1;sketch=1;" vertex="1" parent="kDcE2TMpnsvRKiHyRdf4-1">
          <mxGeometry x="580" y="830" width="120" height="20" as="geometry" />
        </mxCell>
        <mxCell id="fzcsqnZMDEysWcwaZNAt-22" value="" style="rounded=0;whiteSpace=wrap;html=1;sketch=1;" vertex="1" parent="kDcE2TMpnsvRKiHyRdf4-1">
          <mxGeometry x="80" y="990" width="670" height="350" as="geometry" />
        </mxCell>
        <mxCell id="fzcsqnZMDEysWcwaZNAt-23" value="Trending Blogs" style="rounded=0;whiteSpace=wrap;html=1;sketch=1;" vertex="1" parent="kDcE2TMpnsvRKiHyRdf4-1">
          <mxGeometry x="210" y="1020" width="430" height="40" as="geometry" />
        </mxCell>
        <mxCell id="fzcsqnZMDEysWcwaZNAt-24" value="Cover image 1" style="rounded=0;whiteSpace=wrap;html=1;sketch=1;" vertex="1" parent="kDcE2TMpnsvRKiHyRdf4-1">
          <mxGeometry x="110" y="1090" width="120" height="60" as="geometry" />
        </mxCell>
        <mxCell id="fzcsqnZMDEysWcwaZNAt-25" value="Cover Image 2" style="rounded=0;whiteSpace=wrap;html=1;sketch=1;" vertex="1" parent="kDcE2TMpnsvRKiHyRdf4-1">
          <mxGeometry x="110" y="1170" width="120" height="60" as="geometry" />
        </mxCell>
        <mxCell id="fzcsqnZMDEysWcwaZNAt-26" value="Cover Image 3" style="rounded=0;whiteSpace=wrap;html=1;sketch=1;" vertex="1" parent="kDcE2TMpnsvRKiHyRdf4-1">
          <mxGeometry x="110" y="1250" width="120" height="60" as="geometry" />
        </mxCell>
        <mxCell id="fzcsqnZMDEysWcwaZNAt-27" value="Blog title &amp;amp;&amp;amp; preview" style="rounded=0;whiteSpace=wrap;html=1;sketch=1;" vertex="1" parent="kDcE2TMpnsvRKiHyRdf4-1">
          <mxGeometry x="250" y="1090" width="470" height="60" as="geometry" />
        </mxCell>
        <mxCell id="fzcsqnZMDEysWcwaZNAt-28" value="&lt;span&gt;Blog title &amp;amp;&amp;amp; preview&lt;/span&gt;" style="rounded=0;whiteSpace=wrap;html=1;sketch=1;" vertex="1" parent="kDcE2TMpnsvRKiHyRdf4-1">
          <mxGeometry x="250" y="1170" width="470" height="60" as="geometry" />
        </mxCell>
        <mxCell id="fzcsqnZMDEysWcwaZNAt-29" value="&lt;span&gt;Blog title &amp;amp;&amp;amp; preview&lt;/span&gt;" style="rounded=0;whiteSpace=wrap;html=1;sketch=1;" vertex="1" parent="kDcE2TMpnsvRKiHyRdf4-1">
          <mxGeometry x="250" y="1250" width="470" height="60" as="geometry" />
        </mxCell>
      </root>
    </mxGraphModel>
  </diagram>
  <diagram id="xzD_taNgQ-AmMt7AfaFU" name="POST (UI_Sketch)">
    <mxGraphModel dx="1426" dy="825" grid="1" gridSize="10" guides="1" tooltips="1" connect="1" arrows="1" fold="1" page="1" pageScale="1" pageWidth="850" pageHeight="1100" math="0" shadow="0">
      <root>
        <mxCell id="0" />
        <mxCell id="1" parent="0" />
        <mxCell id="PNfuD9YWfdT2an-N1XUz-1" value="" style="whiteSpace=wrap;html=1;aspect=fixed;sketch=1;" parent="1" vertex="1">
          <mxGeometry x="40" y="40" width="760" height="760" as="geometry" />
        </mxCell>
        <mxCell id="PNfuD9YWfdT2an-N1XUz-2" value="" style="whiteSpace=wrap;html=1;sketch=1;" parent="1" vertex="1">
          <mxGeometry x="40" y="40" width="760" height="60" as="geometry" />
        </mxCell>
        <mxCell id="PNfuD9YWfdT2an-N1XUz-3" value="" style="whiteSpace=wrap;html=1;sketch=1;" parent="1" vertex="1">
          <mxGeometry x="70" y="140" width="150" height="240" as="geometry" />
        </mxCell>
        <mxCell id="PNfuD9YWfdT2an-N1XUz-4" value="Writer profile" style="whiteSpace=wrap;html=1;sketch=1;" parent="1" vertex="1">
          <mxGeometry x="85" y="190" width="120" height="180" as="geometry" />
        </mxCell>
        <mxCell id="PNfuD9YWfdT2an-N1XUz-5" value="" style="ellipse;whiteSpace=wrap;html=1;aspect=fixed;sketch=1;" parent="1" vertex="1">
          <mxGeometry x="105" y="150" width="80" height="80" as="geometry" />
        </mxCell>
        <mxCell id="PNfuD9YWfdT2an-N1XUz-6" value="" style="whiteSpace=wrap;html=1;sketch=1;" parent="1" vertex="1">
          <mxGeometry x="260" y="140" width="340" height="630" as="geometry" />
        </mxCell>
        <mxCell id="PNfuD9YWfdT2an-N1XUz-7" value="Links" style="whiteSpace=wrap;html=1;sketch=1;" parent="1" vertex="1">
          <mxGeometry x="650" y="140" width="120" height="630" as="geometry" />
        </mxCell>
        <mxCell id="PNfuD9YWfdT2an-N1XUz-8" value="Extra Space /&lt;br&gt;Advertisement space" style="whiteSpace=wrap;html=1;sketch=1;" parent="1" vertex="1">
          <mxGeometry x="70" y="425" width="150" height="345" as="geometry" />
        </mxCell>
        <mxCell id="PNfuD9YWfdT2an-N1XUz-9" value="Link 1" style="whiteSpace=wrap;html=1;sketch=1;" parent="1" vertex="1">
          <mxGeometry x="500" y="55" width="70" height="30" as="geometry" />
        </mxCell>
        <mxCell id="PNfuD9YWfdT2an-N1XUz-10" value="Link 2" style="whiteSpace=wrap;html=1;sketch=1;" parent="1" vertex="1">
          <mxGeometry x="600" y="55" width="70" height="30" as="geometry" />
        </mxCell>
        <mxCell id="PNfuD9YWfdT2an-N1XUz-11" value="Link 3" style="whiteSpace=wrap;html=1;sketch=1;" parent="1" vertex="1">
          <mxGeometry x="700" y="55" width="70" height="30" as="geometry" />
        </mxCell>
        <mxCell id="PNfuD9YWfdT2an-N1XUz-12" value="Logo/Brand" style="whiteSpace=wrap;html=1;sketch=1;" parent="1" vertex="1">
          <mxGeometry x="70" y="55" width="150" height="30" as="geometry" />
        </mxCell>
        <mxCell id="PNfuD9YWfdT2an-N1XUz-13" value="&lt;b&gt;BLOG&amp;nbsp; TITLE&lt;/b&gt;" style="whiteSpace=wrap;html=1;sketch=1;" parent="1" vertex="1">
          <mxGeometry x="290" y="170" width="270" height="40" as="geometry" />
        </mxCell>
        <mxCell id="PNfuD9YWfdT2an-N1XUz-14" value="Cover image" style="rounded=0;whiteSpace=wrap;html=1;sketch=1;" parent="1" vertex="1">
          <mxGeometry x="290" y="250" width="140" height="150" as="geometry" />
        </mxCell>
        <mxCell id="PNfuD9YWfdT2an-N1XUz-15" value="Main Blog POST" style="whiteSpace=wrap;html=1;aspect=fixed;sketch=1;" parent="1" vertex="1">
          <mxGeometry x="290" y="440" width="290" height="290" as="geometry" />
        </mxCell>
        <mxCell id="PNfuD9YWfdT2an-N1XUz-16" value="main Blog POST" style="rounded=0;whiteSpace=wrap;html=1;sketch=1;" parent="1" vertex="1">
          <mxGeometry x="450" y="250" width="130" height="190" as="geometry" />
        </mxCell>
      </root>
    </mxGraphModel>
  </diagram>
</mxfile>
